<?xml version="1.0" encoding="utf-8"?>
<!-- Generator: Adobe Illustrator 23.0.1, SVG Export Plug-In . SVG Version: 6.00 Build 0)  -->
<svg version="1.1" xmlns="http://www.w3.org/2000/svg" xmlns:xlink="http://www.w3.org/1999/xlink" x="0px" y="0px"
	 viewBox="0 0 595.28 841.89" style="enable-background:new 0 0 595.28 841.89;" xml:space="preserve">
<style type="text/css">
	.st0{fill:#002E45;}
	.st1{fill:#070535;}
	.st2{fill:#17388E;}
	.st3{fill:#C7E40E;}
	.st4{fill:#001D26;}
	.st5{fill:#FFFFFF;}
	.st6{fill:#7BE1EC;}
	.st7{fill:#1C1C1C;}
	.st8{fill:#4D4D4F;}
	.st9{fill:#EE1D25;}
	.st10{fill:#FEFEFE;}
	.st11{fill:#06B1DC;}
	.st12{fill:#0999F8;}
	.st13{fill:#0797FD;}
	.st14{fill:#00CEBA;}
	.st15{fill:#333333;}
	.st16{fill:#666666;}
	.st17{fill:#B0DA11;}
	.st18{fill:#1A4B64;}
	.st19{fill:#FF7F07;}
	.st20{fill:none;stroke:#1B1B1B;stroke-miterlimit:10;}
	.st21{display:none;}
	.st22{display:inline;fill:#002E45;}
	.st23{display:inline;fill:#7BE1EC;}
	.st24{display:inline;}
	.st25{font-family:'FuturaBT-Medium';}
	.st26{font-size:35.3873px;}
	.st27{letter-spacing:1;}
</style>
<g id="Layer_1">
	<path class="st0" d="M355.77,370.69c-4.53,3.92-7.93,10.21-13.07,12.07c-5.42,1.96-9.22-5.22-13.91-8.1
		c-25.65-15.72-60.82-10.32-81.55,12.94c-18.91,21.2-21.22,53.41-6.34,77.09c0.9,1.44,1.45,3.08,1.46,4.78c0,0.09,0,0.19-0.01,0.3
		c-0.12,1.43-0.83,2.74-1.87,3.73l-11.24,10.58c-1.52,1.43-3.94,1.21-5.19-0.46c-24.02-31.98-22.7-78.4,2.01-108.91
		c32.38-39.98,90.78-45.58,129.83-10.49C358.57,366.63,358.62,368.22,355.77,370.69z"/>
	<path class="st6" d="M248.96,475.13c7.4-7.51,15.01-14.84,22.12-22.61c3.33-3.64,5.31-3.09,8.39,0.16
		c7.37,7.75,15.24,15.02,22.57,22.8c3.15,3.34,5.08,3.6,8.44,0.14c10.27-10.57,20.92-20.77,33.4-33.04
		c-11.45,0-20.55-0.34-29.61,0.12c-6.19,0.31-8.6-1.16-8.42-8c0.43-16.63,0.06-16.64,16.97-16.65c18.38-0.01,36.76,0.11,55.14-0.16
		c5.17-0.08,7.2,1.18,7.12,6.79c-0.31,21.94-0.27,43.89-0.05,65.84c0.05,4.89-1.15,6.6-6.37,6.67
		c-18.27,0.26-18.26,0.48-18.23-17.92c0.01-4.11,0.09-8.23-0.04-12.34c-0.05-1.47,0.77-3.55-1.39-4.17c-1.7-0.5-2.56,0.74-3.8,2.02
		c-14.47,14.95-29.27,29.58-43.7,44.56c-3.8,3.94-6.06,4.84-10.2,0.15c-6.67-7.56-14.45-14.12-21.34-21.49
		c-3.48-3.72-5.59-3.73-9.17-0.03c-12.41,12.84-25.35,25.16-37.74,38.02c-4.2,4.36-6.55,4.49-10.9-0.1
		c-11.76-12.42-12-12.13,0.22-24.35c3.07-3.07,5.87-6.42,8.79-9.63C237.09,486.3,243.03,480.72,248.96,475.13z"/>
</g>
<g id="Layer_2" class="st21">
	<path class="st22" d="M210.2,362.28c-3.52,3.05-6.17,7.94-10.16,9.38c-4.21,1.52-7.17-4.06-10.82-6.3
		c-19.94-12.22-47.3-8.03-63.41,10.06c-14.71,16.48-16.5,41.54-4.93,59.95c0.7,1.12,1.13,2.4,1.13,3.72c0,0.07,0,0.15-0.01,0.24
		c-0.1,1.11-0.64,2.13-1.46,2.9l-8.74,8.23c-1.18,1.11-3.06,0.94-4.04-0.36c-18.68-24.87-17.65-60.96,1.56-84.69
		c25.18-31.09,70.59-35.44,100.96-8.15C212.38,359.12,212.42,360.36,210.2,362.28z"/>
	<path class="st23" d="M127.14,443.49c5.76-5.84,11.67-11.54,17.2-17.58c2.59-2.83,4.13-2.4,6.52,0.12
		c5.73,6.03,11.85,11.68,17.55,17.73c2.45,2.6,3.95,2.8,6.57,0.11c7.99-8.22,16.27-16.15,25.97-25.7c-8.9,0-15.98-0.27-23.02,0.09
		c-4.81,0.24-6.69-0.9-6.55-6.22c0.34-12.93,0.05-12.94,13.19-12.94c14.29-0.01,28.59,0.09,42.88-0.12c4.02-0.06,5.6,0.91,5.54,5.28
		c-0.24,17.06-0.21,34.13-0.04,51.2c0.04,3.81-0.9,5.13-4.95,5.19c-14.2,0.2-14.2,0.37-14.18-13.93c0.01-3.2,0.07-6.4-0.03-9.6
		c-0.04-1.14,0.6-2.76-1.08-3.25c-1.32-0.39-1.99,0.57-2.96,1.57c-11.25,11.63-22.76,23-33.99,34.65c-2.95,3.06-4.71,3.76-7.93,0.11
		c-5.18-5.88-11.23-10.98-16.6-16.71c-2.71-2.89-4.35-2.9-7.13-0.02c-9.65,9.98-19.72,19.57-29.35,29.57
		c-3.26,3.39-5.1,3.49-8.48-0.08c-9.15-9.65-9.33-9.43,0.17-18.93c2.39-2.39,4.56-4.99,6.83-7.49
		C117.91,452.18,122.53,447.84,127.14,443.49z"/>
	<text transform="matrix(1 0 0 1 251.3242 423.3286)" class="st24"><tspan x="0" y="0" class="st0 st25 st26 st27">Growthway</tspan><tspan x="246.34" y="0" class="st6 st25 st26 st27"> </tspan><tspan x="0" y="35.39" class="st6 st25 st26 st27">Investments</tspan></text>
</g>
</svg>
