<?xml version="1.0" encoding="utf-8"?>
<!-- Generator: Adobe Illustrator 23.0.1, SVG Export Plug-In . SVG Version: 6.00 Build 0)  -->
<svg version="1.1" xmlns="http://www.w3.org/2000/svg" xmlns:xlink="http://www.w3.org/1999/xlink" x="0px" y="0px"
	 viewBox="0 0 595.28 841.89" style="enable-background:new 0 0 595.28 841.89;" xml:space="preserve">
<style type="text/css">
	.st0{display:none;}
	.st1{display:inline;fill:#002E45;}
	.st2{display:inline;fill:#070535;}
	.st3{display:inline;fill:#17388E;}
	.st4{display:inline;fill:#C7E40E;}
	.st5{display:inline;}
	.st6{fill:#002E45;}
	.st7{fill:#001D26;}
	.st8{fill:#FFFFFF;}
	.st9{fill:#7BE1EC;}
	.st10{display:inline;fill:#1C1C1C;}
	.st11{display:inline;fill:#4D4D4F;}
	.st12{display:inline;fill:#EE1D25;}
	.st13{display:inline;fill:#7BE1EC;}
	.st14{display:inline;fill:#FEFEFE;}
	.st15{display:inline;fill:#06B1DC;}
	.st16{display:inline;fill:#0999F8;}
	.st17{display:inline;fill:#0797FD;}
	.st18{display:inline;fill:#00CEBA;}
	.st19{display:inline;fill:#333333;}
	.st20{display:inline;fill:#666666;}
	.st21{display:inline;fill:#B0DA11;}
	.st22{display:inline;fill:#1A4B64;}
	.st23{display:inline;fill:#FF7F07;}
	.st24{display:inline;fill:#FFFFFF;}
	.st25{display:inline;fill:none;stroke:#1B1B1B;stroke-miterlimit:10;}
</style>
<g id="Layer_1" class="st0">
	<path class="st1" d="M355.77,370.69c-4.53,3.92-7.93,10.21-13.07,12.07c-5.42,1.96-9.22-5.22-13.91-8.1
		c-25.65-15.72-60.82-10.32-81.55,12.94c-18.91,21.2-21.22,53.41-6.34,77.09c0.9,1.44,1.45,3.08,1.46,4.78c0,0.09,0,0.19-0.01,0.3
		c-0.12,1.43-0.83,2.74-1.87,3.73l-11.24,10.58c-1.52,1.43-3.94,1.21-5.19-0.46c-24.02-31.98-22.7-78.4,2.01-108.91
		c32.38-39.98,90.78-45.58,129.83-10.49C358.57,366.63,358.62,368.22,355.77,370.69z"/>
	<path class="st13" d="M248.96,475.13c7.4-7.51,15.01-14.84,22.12-22.61c3.33-3.64,5.31-3.09,8.39,0.16
		c7.37,7.75,15.24,15.02,22.57,22.8c3.15,3.34,5.08,3.6,8.44,0.14c10.27-10.57,20.92-20.77,33.4-33.04
		c-11.45,0-20.55-0.34-29.61,0.12c-6.19,0.31-8.6-1.16-8.42-8c0.43-16.63,0.06-16.64,16.97-16.65c18.38-0.01,36.76,0.11,55.14-0.16
		c5.17-0.08,7.2,1.18,7.12,6.79c-0.31,21.94-0.27,43.89-0.05,65.84c0.05,4.89-1.15,6.6-6.37,6.67
		c-18.27,0.26-18.26,0.48-18.23-17.92c0.01-4.11,0.09-8.23-0.04-12.34c-0.05-1.47,0.77-3.55-1.39-4.17c-1.7-0.5-2.56,0.74-3.8,2.02
		c-14.47,14.95-29.27,29.58-43.7,44.56c-3.8,3.94-6.06,4.84-10.2,0.15c-6.67-7.56-14.45-14.12-21.34-21.49
		c-3.48-3.72-5.59-3.73-9.17-0.03c-12.41,12.84-25.35,25.16-37.74,38.02c-4.2,4.36-6.55,4.49-10.9-0.1
		c-11.76-12.42-12-12.13,0.22-24.35c3.07-3.07,5.87-6.42,8.79-9.63C237.09,486.3,243.03,480.72,248.96,475.13z"/>
</g>
<g id="Layer_2">
	<path class="st6" d="M210.2,362.28c-3.52,3.05-6.17,7.94-10.16,9.38c-4.21,1.52-7.17-4.06-10.82-6.3
		c-19.94-12.22-47.3-8.03-63.41,10.06c-14.71,16.48-16.5,41.54-4.93,59.95c0.7,1.12,1.13,2.4,1.13,3.72c0,0.07,0,0.15-0.01,0.24
		c-0.1,1.11-0.64,2.13-1.46,2.9l-8.74,8.23c-1.18,1.11-3.06,0.94-4.04-0.36c-18.68-24.87-17.65-60.96,1.56-84.69
		c25.18-31.09,70.59-35.44,100.96-8.15C212.38,359.12,212.42,360.36,210.2,362.28z"/>
	<path class="st9" d="M127.14,443.49c5.76-5.84,11.67-11.54,17.2-17.58c2.59-2.83,4.13-2.4,6.52,0.12
		c5.73,6.03,11.85,11.68,17.55,17.73c2.45,2.6,3.95,2.8,6.57,0.11c7.99-8.22,16.27-16.15,25.97-25.7c-8.9,0-15.98-0.27-23.02,0.09
		c-4.81,0.24-6.69-0.9-6.55-6.22c0.34-12.93,0.05-12.94,13.19-12.94c14.29-0.01,28.59,0.09,42.88-0.12c4.02-0.06,5.6,0.91,5.54,5.28
		c-0.24,17.06-0.21,34.13-0.04,51.2c0.04,3.81-0.9,5.13-4.95,5.19c-14.2,0.2-14.2,0.37-14.18-13.93c0.01-3.2,0.07-6.4-0.03-9.6
		c-0.04-1.14,0.6-2.76-1.08-3.25c-1.32-0.39-1.99,0.57-2.96,1.57c-11.25,11.63-22.76,23-33.99,34.65c-2.95,3.06-4.71,3.76-7.93,0.11
		c-5.18-5.88-11.23-10.98-16.6-16.71c-2.71-2.89-4.35-2.9-7.13-0.02c-9.65,9.98-19.72,19.57-29.35,29.57
		c-3.26,3.39-5.1,3.49-8.48-0.08c-9.15-9.65-9.33-9.43,0.17-18.93c2.39-2.39,4.56-4.99,6.83-7.49
		C117.91,452.18,122.53,447.84,127.14,443.49z"/>
	<g>
		<path class="st6" d="M268.24,410.37h10.02c0,0.17,0.01,0.41,0.02,0.73c0.03,0.82,0.05,1.37,0.05,1.66c0,3.56-1.02,6.32-3.06,8.29
			c-2.04,1.97-4.91,2.96-8.62,2.96c-2.07,0-3.92-0.31-5.55-0.92c-1.63-0.61-3.05-1.53-4.27-2.76c-1.2-1.22-2.12-2.66-2.76-4.3
			c-0.64-1.65-0.96-3.41-0.96-5.29c0-1.91,0.33-3.67,0.98-5.29c0.65-1.61,1.62-3.04,2.89-4.27c1.23-1.21,2.68-2.13,4.34-2.76
			c1.66-0.63,3.43-0.95,5.32-0.95c1.99,0,3.78,0.36,5.35,1.09c1.57,0.73,2.98,1.84,4.21,3.33l-3.01,2.26
			c-0.85-0.99-1.81-1.73-2.89-2.21c-1.07-0.48-2.27-0.73-3.59-0.73c-2.74,0-4.98,0.88-6.71,2.64s-2.6,4.04-2.6,6.85
			c0,2.86,0.87,5.17,2.6,6.95s3.98,2.67,6.75,2.67c2.35,0,4.2-0.55,5.55-1.64s2.02-2.59,2.02-4.48v-0.36h-6.08V410.37z"/>
		<path class="st6" d="M287.85,412.01v11.32H284v-25.3h5.74c1.68,0,2.99,0.11,3.91,0.33c0.93,0.22,1.72,0.58,2.38,1.09
			c0.78,0.61,1.39,1.4,1.81,2.37c0.43,0.97,0.64,2.03,0.64,3.18c0,2.03-0.49,3.61-1.47,4.76c-0.98,1.15-2.42,1.83-4.34,2.06
			l8.71,11.51h-4.65l-8.42-11.32H287.85z M288.11,408.81h0.74c2.18,0,3.62-0.25,4.34-0.76c0.71-0.51,1.07-1.41,1.07-2.7
			c0-1.39-0.38-2.38-1.15-2.95c-0.77-0.57-2.19-0.86-4.26-0.86h-0.74V408.81z"/>
		<path class="st6" d="M331.1,410.73c0,1.8-0.34,3.5-1.01,5.1s-1.66,3.03-2.95,4.29c-1.3,1.26-2.77,2.22-4.41,2.89s-3.35,1-5.15,1
			c-1.82,0-3.56-0.34-5.21-1.01c-1.65-0.67-3.11-1.63-4.38-2.88c-1.29-1.26-2.27-2.68-2.94-4.27c-0.67-1.59-1-3.29-1-5.11
			c0-1.81,0.33-3.51,1-5.11s1.65-3.04,2.94-4.3c1.29-1.26,2.75-2.21,4.39-2.87c1.64-0.66,3.37-0.98,5.2-0.98
			c1.82,0,3.54,0.33,5.18,0.98c1.63,0.66,3.09,1.61,4.38,2.87c1.29,1.28,2.27,2.72,2.95,4.33S331.1,408.95,331.1,410.73z
			 M326.81,410.73c0-1.28-0.23-2.49-0.7-3.65s-1.14-2.18-2.01-3.08c-0.85-0.89-1.84-1.57-2.96-2.05s-2.31-0.72-3.55-0.72
			s-2.43,0.24-3.55,0.71c-1.12,0.47-2.12,1.16-3,2.06c-0.88,0.89-1.54,1.91-2,3.06s-0.69,2.37-0.69,3.66c0,1.28,0.23,2.49,0.69,3.63
			s1.13,2.16,2,3.06c0.88,0.9,1.87,1.58,2.99,2.06s2.3,0.71,3.56,0.71c1.23,0,2.4-0.24,3.52-0.71c1.11-0.47,2.11-1.16,3-2.06
			c0.88-0.9,1.55-1.92,2.01-3.07C326.58,413.21,326.81,412,326.81,410.73z"/>
		<path class="st6" d="M334.15,398.03h4.06L343,410.8c0.31,0.84,0.57,1.58,0.79,2.21s0.4,1.23,0.56,1.78
			c0.4-1.34,0.82-2.64,1.26-3.92c0.06-0.16,0.1-0.27,0.12-0.33l5.08-13.51l5.36,13.77c0.25,0.67,0.49,1.34,0.72,2
			c0.22,0.67,0.43,1.34,0.63,2.02c0.11-0.52,0.27-1.09,0.47-1.71c0.2-0.62,0.45-1.36,0.76-2.21l4.75-12.87h4.09l-9.8,26.28
			l-5.77-14.43c-0.25-0.65-0.48-1.26-0.69-1.86c-0.21-0.59-0.39-1.15-0.55-1.69c-0.2,0.68-0.39,1.32-0.59,1.91
			c-0.2,0.59-0.4,1.16-0.61,1.7l-5.67,14.36L334.15,398.03z"/>
		<path class="st6" d="M379.9,401.52v21.81h-4.11v-21.81h-6.72v-3.49h17.52v3.49H379.9z"/>
		<path class="st6" d="M391.08,423.33v-25.3h4.11v9.33h12.44v-9.33h4.11v25.3h-4.11v-12.29h-12.44v12.29H391.08z"/>
		<path class="st6" d="M415.89,398.03h4.06l4.79,12.77c0.31,0.84,0.57,1.58,0.79,2.21s0.4,1.23,0.56,1.78
			c0.4-1.34,0.82-2.64,1.26-3.92c0.06-0.16,0.1-0.27,0.12-0.33l5.08-13.51l5.36,13.77c0.25,0.67,0.49,1.34,0.72,2
			c0.22,0.67,0.43,1.34,0.63,2.02c0.11-0.52,0.27-1.09,0.47-1.71c0.2-0.62,0.45-1.36,0.76-2.21l4.75-12.87h4.09l-9.8,26.28
			l-5.77-14.43c-0.25-0.65-0.48-1.26-0.69-1.86c-0.21-0.59-0.39-1.15-0.55-1.69c-0.2,0.68-0.39,1.32-0.59,1.91
			c-0.2,0.59-0.4,1.16-0.61,1.7l-5.67,14.36L415.89,398.03z"/>
		<path class="st6" d="M469.55,423.33l-2.87-6.51h-10.02l-2.94,6.51h-4.32l12.25-26.3l12.23,26.3H469.55z M458.18,413.39h7.05
			l-2.59-5.77c-0.15-0.37-0.31-0.79-0.47-1.27s-0.32-1.01-0.48-1.6c-0.14,0.55-0.29,1.07-0.44,1.55c-0.16,0.48-0.31,0.92-0.47,1.32
			L458.18,413.39z"/>
		<path class="st6" d="M481.13,423.33v-11.58l-8.52-13.72h4.32l5.3,8.59c0.13,0.22,0.29,0.51,0.48,0.86s0.38,0.74,0.58,1.16
			c0.16-0.4,0.33-0.78,0.51-1.14c0.18-0.36,0.37-0.69,0.56-0.98l5.44-8.48h4.11l-8.71,13.72v11.58H481.13z"/>
		<path class="st9" d="M254.3,458.72v-25.3h4.11v25.3H254.3z"/>
		<path class="st9" d="M265.66,458.72v-26.3l16.07,15.46c0.44,0.44,0.88,0.9,1.33,1.4c0.45,0.5,0.92,1.05,1.42,1.68v-17.54h3.8
			v26.28l-16.4-15.74c-0.44-0.43-0.86-0.88-1.27-1.35c-0.41-0.47-0.8-0.97-1.17-1.49v17.59H265.66z"/>
		<path class="st9" d="M303.47,459.7l-11.28-26.28h4.27l5.67,13.48c0.33,0.78,0.61,1.51,0.83,2.17c0.22,0.66,0.39,1.29,0.52,1.89
			c0.15-0.63,0.34-1.29,0.57-1.97s0.5-1.38,0.81-2.09l5.65-13.48h4.25L303.47,459.7z"/>
		<path class="st9" d="M318.65,458.72v-25.3h14.12v3.49h-10v6.34h10v3.61h-10v8.17h10v3.68H318.65z"/>
		<path class="st9" d="M337.38,453.65l3.28-1.52c0.31,1.13,0.88,1.99,1.71,2.58c0.83,0.59,1.89,0.89,3.18,0.89
			c1.22,0,2.19-0.34,2.91-1.02c0.72-0.68,1.08-1.59,1.08-2.73c0-1.49-1.23-2.81-3.7-3.97c-0.35-0.17-0.61-0.3-0.79-0.38
			c-2.79-1.36-4.65-2.59-5.57-3.69c-0.93-1.1-1.39-2.44-1.39-4.03c0-2.06,0.7-3.73,2.1-5.01c1.4-1.28,3.23-1.92,5.5-1.92
			c1.87,0,3.43,0.36,4.68,1.08c1.25,0.72,2.13,1.75,2.61,3.1l-3.21,1.66c-0.51-0.79-1.06-1.38-1.67-1.75
			c-0.6-0.37-1.3-0.55-2.08-0.55c-1.11,0-1.98,0.29-2.63,0.86c-0.65,0.58-0.98,1.35-0.98,2.32c0,1.52,1.43,2.94,4.29,4.25
			c0.22,0.1,0.39,0.18,0.52,0.24c2.5,1.15,4.22,2.28,5.15,3.38c0.93,1.1,1.4,2.47,1.4,4.12c0,2.4-0.75,4.3-2.26,5.71
			s-3.55,2.12-6.12,2.12c-2.15,0-3.92-0.5-5.3-1.49C338.71,456.91,337.81,455.5,337.38,453.65z"/>
		<path class="st9" d="M367.77,436.91v21.81h-4.11v-21.81h-6.72v-3.49h17.52v3.49H367.77z"/>
		<path class="st9" d="M399.58,446.22c-0.05-0.2-0.12-0.74-0.22-1.62c-0.09-0.74-0.17-1.35-0.24-1.83c-0.1,0.58-0.25,1.15-0.44,1.73
			c-0.19,0.58-0.43,1.16-0.72,1.76l-6.62,13.48l-6.62-13.75c-0.28-0.56-0.52-1.11-0.72-1.64c-0.2-0.53-0.38-1.05-0.53-1.57
			c-0.01,0.53-0.05,1.09-0.13,1.67c-0.08,0.58-0.19,1.19-0.34,1.82l-2.71,12.46h-3.78l5.98-26.37l7.46,15.97
			c0.12,0.25,0.29,0.67,0.53,1.26c0.24,0.59,0.52,1.31,0.86,2.18c0.24-0.73,0.62-1.65,1.14-2.76c0.14-0.3,0.24-0.53,0.31-0.69
			l7.29-15.95l6.12,26.37h-3.82L399.58,446.22z"/>
		<path class="st9" d="M410.82,458.72v-25.3h14.12v3.49h-10v6.34h10v3.61h-10v8.17h10v3.68H410.82z"/>
		<path class="st9" d="M431,458.72v-26.3l16.07,15.46c0.44,0.44,0.88,0.9,1.33,1.4c0.45,0.5,0.92,1.05,1.42,1.68v-17.54h3.8v26.28
			l-16.4-15.74c-0.44-0.43-0.86-0.88-1.27-1.35c-0.41-0.47-0.8-0.97-1.17-1.49v17.59H431z"/>
		<path class="st9" d="M468.94,436.91v21.81h-4.11v-21.81h-6.72v-3.49h17.52v3.49H468.94z"/>
		<path class="st9" d="M478.67,453.65l3.28-1.52c0.31,1.13,0.88,1.99,1.71,2.58c0.83,0.59,1.89,0.89,3.18,0.89
			c1.22,0,2.19-0.34,2.91-1.02c0.72-0.68,1.08-1.59,1.08-2.73c0-1.49-1.23-2.81-3.7-3.97c-0.35-0.17-0.61-0.3-0.79-0.38
			c-2.79-1.36-4.65-2.59-5.57-3.69c-0.93-1.1-1.39-2.44-1.39-4.03c0-2.06,0.7-3.73,2.1-5.01c1.4-1.28,3.23-1.92,5.5-1.92
			c1.87,0,3.43,0.36,4.68,1.08c1.25,0.72,2.13,1.75,2.61,3.1l-3.21,1.66c-0.51-0.79-1.06-1.38-1.67-1.75
			c-0.6-0.37-1.3-0.55-2.08-0.55c-1.11,0-1.98,0.29-2.63,0.86c-0.65,0.58-0.98,1.35-0.98,2.32c0,1.52,1.43,2.94,4.29,4.25
			c0.22,0.1,0.39,0.18,0.52,0.24c2.5,1.15,4.22,2.28,5.15,3.38c0.93,1.1,1.4,2.47,1.4,4.12c0,2.4-0.75,4.3-2.26,5.71
			s-3.55,2.12-6.12,2.12c-2.15,0-3.92-0.5-5.3-1.49C480,456.91,479.09,455.5,478.67,453.65z"/>
	</g>
</g>
</svg>
